<svg width="512" height="512" viewBox="0 0 512 512" fill="none" xmlns="http://www.w3.org/2000/svg" xmlns:xlink="http://www.w3.org/1999/xlink" class=""><rect id="_r_9_" width="512" height="512" x="0" y="0" rx="128" fill="url(#_r_a_)" stroke="#FFFFFF" stroke-width="0" stroke-opacity="100%" paint-order="stroke"></rect><clipPath id="clip"><use xlink:href="#_r_9_"></use></clipPath><defs><linearGradient id="_r_a_" gradientUnits="userSpaceOnUse" gradientTransform="rotate(45)" style="transform-origin: center center;"><stop stop-color="#DD1818"></stop><stop offset="1" stop-color="#380202"></stop></linearGradient><radialGradient id="_r_b_" cx="0" cy="0" r="1" gradientUnits="userSpaceOnUse" gradientTransform="translate(256) rotate(90) scale(512)"><stop stop-color="white"></stop><stop offset="1" stop-color="white" stop-opacity="0"></stop></radialGradient></defs><svg xmlns="http://www.w3.org/2000/svg" fill="none" viewBox="0 0 16 16" width="352" height="352" x="80" y="80" alignment-baseline="middle" style="width: 352px; height: 352px; color: rgb(249, 178, 161);"><path fill="currentColor" fill-rule="evenodd" d="M2.75 3A1.75 1.75 0 0 0 1 4.75v1.313a.75.75 0 0 0 .563.726 1.25 1.25 0 0 1 0 2.422.75.75 0 0 0-.563.726v1.313c0 .966.784 1.75 1.75 1.75h10.5A1.75 1.75 0 0 0 15 11.25V9.937a.75.75 0 0 0-.563-.726 1.25 1.25 0 0 1 0-2.422.75.75 0 0 0 .563-.726V4.75A1.75 1.75 0 0 0 13.25 3H2.75ZM2.5 4.75a.25.25 0 0 1 .25-.25h10.5a.25.25 0 0 1 .25.25v.8a2.749 2.749 0 0 0 0 4.9v.8a.25.25 0 0 1-.25.25H2.75a.25.25 0 0 1-.25-.25v-.8a2.75 2.75 0 0 0 0-4.9v-.8Zm4.25 2.5a.75.75 0 0 0 0 1.5h2.5a.75.75 0 0 0 0-1.5h-2.5Z" clip-rule="evenodd"></path></svg></svg>